<?xml version="1.0" encoding="utf-8"?>
<!-- Generator: Adobe Illustrator 18.1.0, SVG Export Plug-In . SVG Version: 6.00 Build 0)  -->
<svg version="1.1" id="Layer_1" xmlns="http://www.w3.org/2000/svg" xmlns:xlink="http://www.w3.org/1999/xlink" x="0px" y="0px"
	 viewBox="0 0 511.3 135.5" enable-background="new 0 0 511.3 135.5" xml:space="preserve">
<g>
	<g>
		<g>
			<path fill="#FFFFFF" d="M50.9,35.3l1.4-7.7c1.5-3.8-0.6-24.6-0.9-25.6s0-1,0-1s22.4-2.6,42.1,0.7c0,0,0.3,0,0.1,0.9
				c0,0-3.2,23.7-1.1,25c0,0-6.3,0.9-16.9,5.8c0,0-10.7,5.3-12.2,7.4c0,0-1.4,1.2,0.4,0.2C82,30.3,93.1,28.9,93.1,28.9
				s9.2-0.2,9.1,5.4c0,0-0.6,5.9-15.2,3.9c0,0-5.6-1.9-13.4,0.9c-7.8,2.8-1.9,0.7-1.9,0.7c-15.8,6.8-32.6,4.3-30.2-4.2
				c0,0-0.3-4.6,10-8L50,35c0,0-0.1,2.8,1.1-0.3"/>
			<path fill="#FFFFFF" d="M11.5,56.7C27.4,58,28.6,21.9,28.6,21.9l-1.9,0.6c-1,12.6-3.7,20.1-3.7,20.1s1.9-10.1,2.6-19.8l-2.3,0.7
				c-0.5,8.4-2,15-2,15s0.6-7.5,0.9-14.7l-2,0.6c-0.6,11-2.4,19.6-2.6,20.5c0.1-1.1,1.2-11.8,1.6-20.2l-2.1,0.6
				c-0.3,4.5-1.2,10.1-1.2,10.1s0.1-5.5,0.3-9.8l-1.9,0.6c-0.7,6.5-1.5,15.1-1.5,15.1s-0.3-6,0.5-14.8l-2.1,0.6
				c-0.4,4.6-1,9.9-1,9.9s-0.2-4,0.2-9.7l-2,0.6c-0.8,8.9-1.3,19.6-1.3,19.6s-0.6-6.9,0.2-19.3l-2.1,0.6C4.3,36,4.3,45.4,4.3,45.4
				s-1.1-6.8-0.3-16.2l-2.2,0.7C1.9,29.9-2.5,55.5,11.5,56.7z"/>
			
				<rect x="8.6" y="57.5" transform="matrix(0.9965 8.308707e-02 -8.308707e-02 0.9965 4.8804 -0.7412)" fill="#FFFFFF" width="5.5" height="1.6"/>
			
				<rect x="8.4" y="59.8" transform="matrix(0.9965 8.310429e-02 -8.310429e-02 0.9965 5.0758 -0.7169)" fill="#FFFFFF" width="5.5" height="1.6"/>
			
				<rect x="8.2" y="62.2" transform="matrix(-0.9965 -8.308706e-02 8.308706e-02 -0.9965 16.6385 126.6152)" fill="#FFFFFF" width="5.5" height="1.6"/>
			<path fill="#FFFFFF" d="M138.7,68.7l-0.4,0.1c-1.3,0.4-1.8,0.6-3.4,1.6c-0.4,0.2-0.8,0.6-1.2,0.9c-0.3,0.3-0.6,0.5-0.8,0.6
				c-0.1,0-0.4,0-0.6,0.1c-0.4,0-0.9,0-1.5,0.2c-2.5,0.8-3.3,1.2-4.1,1.6c-0.2,0.1-0.4,0.2-0.5,0.3c0.5-1.4,0.8-2.1,1-2.5
				c0.3-0.8,0.3-0.8,0.3-1c0.1-0.4,0.4-1.5,0.9-3.3c0.4-1.2,0.5-1.5,0.6-1.8c0.2-0.5,0.4-1,1-2.9c0.1-0.4,0.2-0.8,0.3-1.2l0.1-0.5
				l-3.5-0.7l-0.1,0.6c0,0.3-0.1,0.6-0.2,0.9c-0.5,1.8-0.7,2.2-0.8,2.5c-0.2,0.4-0.3,0.7-0.8,2.2c-0.9,2.9-1,3.5-1,3.6l-0.2,0.4
				c-0.2,0.6-0.8,2-2,5.3l-0.1,0.2c-1,0.3-2,0.7-2.7,1.2c-1.7,1-2.5,1.8-3.1,2.4c-0.7,0.7-1.3,1.2-3.3,2.2c-0.8,0.4-2.6,1.1-6.2,2.2
				c-2.2-5.4-5.6-10.2-9.9-14c3.1-4.7,4.9-10.3,4.9-16.4c0-5-1.2-9.7-3.4-13.8c-2.3,0.7-5.7,1.1-11.1,0.3c0,0-5.6-1.9-13.4,0.9
				c-7.8,2.8-1.9,0.7-1.9,0.7c-11.2,4.8-22.9,4.9-27.9,1.6c-1.2,3.2-1.8,6.6-1.8,10.2c0,6.1,1.8,11.7,4.9,16.4
				c-4.6,4-8.1,9.2-10.3,15c-4-2.1-6.7-3.3-8.1-3.9c-2.7-0.9-3.8-1-5-1c-0.8,0-1.6,0-3.2-0.4c-0.7-0.2-2.1-0.9-3.1-1.4
				c-0.5-2.1-1-4.3-1.6-5.3c-0.3-0.6-0.8-1-1.1-1.2c-0.1-0.1-0.2-0.1-0.3-0.2c-0.3-0.5-0.5-1-0.8-1.5c-0.1-0.2-0.2-0.5-0.3-0.7
				l0.4-4.2l-5.5-0.5l-0.7,8.8c-0.6-0.2-1.2-0.3-1.7-0.3c-0.3,0-0.6,0-0.9-0.1c-1.6-0.4-1.8-0.5-2.8-1l-0.4-0.2L0,74.6l0.3,0.2
				c1.2,0.6,1.7,0.8,3.6,1.3c0.5,0.1,0.9,0.2,1.4,0.2c0.4,0,0.8,0.1,1,0.2c0.1,0,0.3,0.2,0.4,0.4C6.9,76.9,7,77,7,77l-0.5,5.8
				c-0.1,0.1-0.2,0.1-0.4,0.2c-1.1,0.6-1.4,0.7-1.7,0.9c-0.5,0.2-1,0.4-2.8,1.4c-0.4,0.2-0.7,0.4-1,0.7l-0.4,0.3l2,3l0.5-0.3
				c0.2-0.2,0.5-0.3,0.7-0.5c1.7-0.9,2-1.1,2.3-1.2c0.1,0,0.3-0.1,0.4-0.2l-2.3,27.7l5.5,0.5L12,84c0.7-0.3,2.1-0.9,4.7-2.2l0.2-0.1
				c1,0.5,1.9,0.9,2.7,1.1c1.9,0.4,3,0.5,3.9,0.5c1,0,1.8,0,3.9,0.8c1,0.4,3.3,1.4,8.2,3.9c-0.8,3.1-1.3,6.3-1.3,9.6
				c0,0.5,0,0.9,0,1.3c-8.1,8.9-13,20.8-13,33.8c0,0.9,0,1.8,0.1,2.7h100.7c0-0.9,0.1-1.8,0.1-2.7c0-13-4.9-24.9-13-33.8
				c0-0.4,0-0.9,0-1.3c0-3.7-0.5-7.3-1.5-10.6c3.2-1,5.4-1.8,6.6-2.4c2.6-1.2,3.4-2,4.3-2.9c0.6-0.6,1.2-1.1,2.5-2
				c0.6-0.4,2.1-0.9,3.1-1.2c1.8,1.2,3.7,2.3,4.9,2.7c0.7,0.2,1.3,0.1,1.7,0.1c0.1,0,0.2,0,0.3,0c0.6,0.1,1.1,0.3,1.6,0.5
				c0.3,0.1,0.7,0.3,1,0.4l0.9,0.3l1.1-3.4l-0.9-0.3c-0.3-0.1-0.6-0.2-0.9-0.3c-0.7-0.3-1.4-0.5-2.2-0.7c-0.6-0.1-1.1-0.1-1.5,0
				c-0.1,0-0.2,0-0.3,0c-0.4-0.1-1-0.4-1.7-0.9c0,0,0.1,0,0.1,0c0.8-0.4,1.4-0.7,3.6-1.3c0.1,0,0.4,0,0.6,0c0.5,0,1.2,0,1.8-0.3
				c0.7-0.3,1.3-0.8,1.7-1.2c0.2-0.2,0.4-0.4,0.7-0.5c1.4-0.9,1.7-0.9,2.7-1.3l0.4-0.1L138.7,68.7z M12.3,79.9l0-0.2
				c0.1,0,0.2,0.1,0.3,0.1C12.5,79.8,12.4,79.8,12.3,79.9z M13.1,76.2c-0.2-0.1-0.3-0.1-0.5-0.2l0.1-1.4
				C12.9,75,13.1,75.6,13.1,76.2C13.2,76.2,13.2,76.2,13.1,76.2z M71.3,131.1c-1.3,0-2.3-1-2.3-2.3s1-2.3,2.3-2.3s2.3,1,2.3,2.3
				S72.6,131.1,71.3,131.1z M71.3,116.7c-1.3,0-2.3-1-2.3-2.3c0-1.3,1-2.3,2.3-2.3s2.3,1,2.3,2.3C73.6,115.6,72.6,116.7,71.3,116.7z
				 M71.3,102.3c-1.3,0-2.3-1-2.3-2.3c0-1.3,1-2.3,2.3-2.3s2.3,1,2.3,2.3C73.6,101.2,72.6,102.3,71.3,102.3z M71.3,87.9
				c-1.3,0-2.3-1-2.3-2.3c0-1.3,1-2.3,2.3-2.3s2.3,1,2.3,2.3C73.6,86.8,72.6,87.9,71.3,87.9z M81,67.2c-4.1-0.3-7.6-2.7-9.6-4.8
				c-1.9,2.1-5.5,4.5-9.6,4.8c-4.3,0.3-8.4-1.6-8.1-6.2c0.1-1.5,1.1-3.6,3.3-3.4c0.2,0,0.4,0.1,0.5,0.1c0,0,0,0,0,0
				c0.8,0.2,1.5,1,1.5,1.9c0,1.1-0.9,2-2,2c-1,0-1.8-0.7-1.9-1.7c0,0,0,0,0,0c-0.6,1.7,0.6,3.6,1.9,3.9c4.6,0.8,6.3-6.5,10.6-7.1
				c1.6-0.2,2.9,0.2,3.8,1.1c0.9-0.9,2.2-1.4,3.8-1.1c4.3,0.7,6,7.9,10.6,7.1c1.4-0.2,2.6-2.1,1.9-3.9c0,0,0,0,0,0
				c-0.1,0.9-1,1.7-1.9,1.7c-1.1,0-2-0.9-2-2c0-0.9,0.6-1.7,1.5-1.9c0,0,0,0,0,0c0.2-0.1,0.3-0.1,0.5-0.1c2.1-0.2,3.2,1.9,3.3,3.4
				C89.4,65.6,85.3,67.5,81,67.2z"/>
		</g>
	</g>
	<g>
		<path fill="#FFFFFF" d="M167.3,36.3v-4.2h5.1V12.5h-5.1V8.3h15.8v4.2H178v19.6h5.1v4.2H167.3z"/>
		<path fill="#FFFFFF" d="M201.8,22c0-1.8-1.2-2.6-3.6-2.6c-1,0-1.9,0.3-2.7,0.8c-0.8,0.5-1.2,1.3-1.2,2.2v13.9h-5.2V15.9h5.2v1.8
			c1.7-1.5,3.8-2.3,6.1-2.3c2.3,0,4,0.6,5.1,1.8c1.1,1.2,1.6,2.7,1.6,4.5v14.6h-5.2V22z"/>
		<path fill="#FFFFFF" d="M222.5,36.5c-3.1,0-5.3-0.5-6.7-1.4c-1.3-0.9-2-2.7-2-5.3V19.2h-2.7v-3.3h2.9l0.5-6.5h4.5v6.5h4.8v3.3H219
			v10.3c0,1.3,0.3,2.1,0.9,2.6c0.6,0.4,1.8,0.7,3.5,0.7h0.6l-0.2,3.8H222.5z"/>
		<path fill="#FFFFFF" d="M232.9,36.4c-1-0.2-1.9-0.6-2.7-1.1c-1.7-1-2.5-2.8-2.5-5.4V22c0-2,0.8-3.6,2.3-4.8
			c1.6-1.1,3.7-1.7,6.4-1.7c5.8,0,8.7,2.2,8.7,6.7v4.9h-12.2v3.3c0,1.1,0.3,1.9,0.8,2.2c0.6,0.3,1.5,0.5,2.8,0.5
			c1.3,0,2.1-0.1,2.4-0.2c0.6-0.3,0.9-0.7,1.1-1.1c0.2-0.4,0.3-1,0.3-1.8h4.8c-0.1,3.1-1.2,5.1-3.3,6c-1.3,0.5-2.8,0.7-4.6,0.7
			C235.3,36.7,233.9,36.6,232.9,36.4z M232.8,23.9h7.3v-2.4c0-1.2-0.5-2-1.5-2.3c-0.5-0.2-1.3-0.2-2.4-0.2c-1.1,0-1.9,0.2-2.5,0.5
			c-0.6,0.4-0.9,1-0.9,2V23.9z"/>
		<path fill="#FFFFFF" d="M250.1,36.3V15.9h5.2v2.4c0.3-0.6,0.9-1.1,1.9-1.6c1.7-0.8,3.3-1.2,4.8-1.2c0.2,0,0.3,0,0.5,0l-0.1,4.4
			c-2.3,0.1-4.1,0.5-5.6,1.3c-0.8,0.4-1.3,0.9-1.4,1.4v13.7H250.1z"/>
		<path fill="#FFFFFF" d="M278.6,22c0-1.8-1.2-2.6-3.6-2.6c-1,0-1.9,0.3-2.7,0.8c-0.8,0.5-1.2,1.3-1.2,2.2v13.9h-5.2V15.9h5.2v1.8
			c1.7-1.5,3.8-2.3,6.1-2.3c2.3,0,4,0.6,5.1,1.8c1.1,1.2,1.6,2.7,1.6,4.5v14.6h-5.2V22z"/>
		<path fill="#FFFFFF" d="M298.4,36c-1.1,0.5-2.4,0.8-4,0.8c-1.6,0-2.9-0.5-4-1.5c-1.1-1-1.6-2.3-1.6-3.9c0-1.6,0.5-2.9,1.5-3.8
			c1-1,2.9-1.9,5.7-2.8c1.7-0.5,2.9-1,3.6-1.5c0.7-0.4,1-1,1-1.8c0-1.6-1.1-2.3-3.2-2.3c-1.2,0-2,0.2-2.5,0.7
			c-0.5,0.5-0.7,1.1-0.7,2v0.8h-4.8V22c0-2,0.7-3.6,2-4.8c1.4-1.1,3.4-1.7,6.2-1.7s4.8,0.6,6.1,1.8c1.3,1.2,1.9,2.9,1.9,5.1v8.1
			c0,0.9,0.1,1.5,0.3,1.8c0.2,0.3,0.7,0.4,1.3,0.4l-0.2,3.8H306c-1.4,0-2.5-0.2-3.3-0.6c-0.8-0.4-1.4-1-1.7-1.8
			C300.4,34.8,299.5,35.4,298.4,36z M293.9,30.7c0,1.6,0.9,2.4,2.7,2.4c0.7,0,1.4-0.2,2.2-0.5c0.8-0.4,1.4-0.9,1.8-1.6V26
			c-0.6,0.5-1.7,1-3.2,1.6c-1.5,0.6-2.5,1.1-2.9,1.6C294.1,29.6,293.9,30.1,293.9,30.7z"/>
		<path fill="#FFFFFF" d="M321.4,36.5c-3.1,0-5.3-0.5-6.7-1.4c-1.3-0.9-2-2.7-2-5.3V19.2h-2.7v-3.3h2.9l0.5-6.5h4.5v6.5h4.8v3.3
			h-4.8v10.3c0,1.3,0.3,2.1,0.9,2.6c0.6,0.4,1.8,0.7,3.5,0.7h0.6l-0.2,3.8H321.4z"/>
		<path fill="#FFFFFF" d="M327.4,13V8.5h5.2V13H327.4z M327.4,36.3V15.9h5.2v20.4H327.4z"/>
		<path fill="#FFFFFF" d="M346.8,36.7c-5.9,0-8.8-2.2-8.8-6.6v-8c0-2.1,0.8-3.7,2.3-4.9c1.5-1.2,3.7-1.7,6.5-1.7
			c2.8,0,5,0.6,6.5,1.8c1.6,1.2,2.3,2.8,2.3,4.9v8c0,3.3-1.6,5.3-4.7,6.1C349.8,36.6,348.4,36.7,346.8,36.7z M346.8,33.1
			c2.5,0,3.7-0.9,3.7-2.8v-8.5c0-1-0.3-1.7-0.9-2.1c-0.6-0.4-1.5-0.6-2.7-0.6c-2.5,0-3.7,0.9-3.7,2.8v8.5c0,1,0.3,1.7,0.9,2.1
			C344.7,32.9,345.6,33.1,346.8,33.1z"/>
		<path fill="#FFFFFF" d="M373.7,22c0-1.8-1.2-2.6-3.6-2.6c-1,0-1.9,0.3-2.7,0.8c-0.8,0.5-1.2,1.3-1.2,2.2v13.9H361V15.9h5.2v1.8
			c1.7-1.5,3.8-2.3,6.1-2.3c2.3,0,4,0.6,5.1,1.8c1.1,1.2,1.6,2.7,1.6,4.5v14.6h-5.2V22z"/>
		<path fill="#FFFFFF" d="M393.6,36c-1.1,0.5-2.4,0.8-4,0.8c-1.6,0-2.9-0.5-4-1.5c-1.1-1-1.6-2.3-1.6-3.9c0-1.6,0.5-2.9,1.5-3.8
			c1-1,2.9-1.9,5.7-2.8c1.7-0.5,2.9-1,3.6-1.5c0.7-0.4,1-1,1-1.8c0-1.6-1.1-2.3-3.2-2.3c-1.2,0-2,0.2-2.5,0.7
			c-0.5,0.5-0.7,1.1-0.7,2v0.8h-4.8V22c0-2,0.7-3.6,2-4.8c1.4-1.1,3.4-1.7,6.2-1.7s4.8,0.6,6.1,1.8c1.3,1.2,1.9,2.9,1.9,5.1v8.1
			c0,0.9,0.1,1.5,0.3,1.8c0.2,0.3,0.7,0.4,1.3,0.4l-0.2,3.8h-1.1c-1.4,0-2.5-0.2-3.3-0.6c-0.8-0.4-1.4-1-1.7-1.8
			C395.5,34.8,394.7,35.4,393.6,36z M389,30.7c0,1.6,0.9,2.4,2.7,2.4c0.7,0,1.4-0.2,2.2-0.5c0.8-0.4,1.4-0.9,1.8-1.6V26
			c-0.6,0.5-1.7,1-3.2,1.6c-1.5,0.6-2.5,1.1-2.9,1.6C389.2,29.6,389,30.1,389,30.7z"/>
		<path fill="#FFFFFF" d="M414,36.5c-2.3,0-4.1-0.5-5.2-1.6c-1.1-1.1-1.7-2.8-1.7-5.3v-22h5.2v22c0,1.1,0.3,2,0.8,2.4
			c0.5,0.5,1.5,0.7,2.8,0.7h0.6l-0.4,3.8H414z"/>
		<path fill="#FFFFFF" d="M177.1,83.4c-1.7,0-3.6-0.2-5.5-0.7s-3.6-1.1-5-1.9l1.9-4.1c2.8,1.5,5.7,2.2,8.7,2.2
			c1.5,0,2.6-0.3,3.2-0.9c0.6-0.6,0.9-1.5,0.9-2.8c0-0.2,0-0.6-0.1-1.1c-0.1-1.1-1.4-2.1-3.8-2.8l-4.8-1.4c-1.5-0.4-2.6-1-3.5-1.8
			c-0.9-0.8-1.5-1.7-1.8-2.6c-0.3-1-0.5-2.1-0.5-3.3c0-2.6,0.9-4.5,2.7-5.8c1.8-1.3,4.2-1.9,7-1.9c3.7,0,6.9,0.7,9.4,2.2l-1.6,4
			c-2.4-1.1-4.9-1.7-7.3-1.7c-3,0-4.6,0.9-4.7,2.8c0,0.1,0,0.2,0,0.3c0,0.9,0.2,1.7,0.7,2.2s1.4,1,2.9,1.5l4.8,1.4
			c1.9,0.6,3.3,1.5,4.3,2.7c0.9,1.3,1.4,3,1.4,5.3c0,2.3-0.7,4.3-2.2,5.9C182.8,82.6,180.4,83.4,177.1,83.4z"/>
		<path fill="#FFFFFF" d="M204.4,68.6c0-1.8-1.2-2.6-3.6-2.6c-1,0-1.9,0.3-2.7,0.8c-0.8,0.5-1.2,1.3-1.2,2.2v13.9h-5.2V62.5h5.2v1.8
			c1.7-1.5,3.8-2.3,6.1-2.3c2.3,0,4,0.6,5.1,1.8c1.1,1.2,1.6,2.7,1.6,4.5v14.6h-5.2V68.6z"/>
		<path fill="#FFFFFF" d="M223.6,83.3c-5.9,0-8.8-2.2-8.8-6.6v-8c0-2.1,0.8-3.7,2.3-4.9c1.5-1.2,3.7-1.7,6.5-1.7
			c2.8,0,5,0.6,6.5,1.8c1.6,1.2,2.3,2.8,2.3,4.9v8c0,3.3-1.6,5.3-4.7,6.1C226.6,83.2,225.2,83.3,223.6,83.3z M223.6,79.7
			c2.5,0,3.7-0.9,3.7-2.8v-8.5c0-1-0.3-1.7-0.9-2.1c-0.6-0.4-1.5-0.6-2.7-0.6c-2.5,0-3.7,0.9-3.7,2.8v8.5c0,1,0.3,1.7,0.9,2.1
			C221.4,79.5,222.4,79.7,223.6,79.7z"/>
		<path fill="#FFFFFF" d="M241.3,82.9l-5.6-20.4h4.8l3.6,14.6l4.3-14.6h4.2l4.4,14.8l3.4-14.8h4.8l-5.4,20.4h-5l-4.2-14l-4.3,14
			H241.3z"/>
		<path fill="#FFFFFF" d="M269,82.9V62.5h5.2v1.8c0.7-0.7,1.6-1.3,2.8-1.7c1.1-0.4,2.2-0.6,3.3-0.6c2.7,0,4.6,0.8,5.6,2.5
			c1.7-1.7,3.9-2.5,6.8-2.5c1.9,0,3.5,0.5,4.7,1.6c1.2,1.1,1.8,2.4,1.8,4.2v15.1h-5.2V68.4c0-1-0.3-1.7-0.8-2
			c-0.5-0.4-1.3-0.5-2.2-0.5c-1,0-1.9,0.3-2.8,0.8s-1.4,1.2-1.5,2v14.2h-5.2V68.4c0-1-0.3-1.7-0.8-2c-0.5-0.4-1.3-0.5-2.3-0.5
			c-1,0-1.9,0.3-2.8,0.8c-0.9,0.5-1.3,1.3-1.3,2.2v14H269z"/>
		<path fill="#FFFFFF" d="M313.7,82.5c-1.1,0.5-2.4,0.8-4,0.8c-1.6,0-2.9-0.5-4-1.5c-1.1-1-1.6-2.3-1.6-3.9c0-1.6,0.5-2.9,1.5-3.8
			s2.9-1.9,5.7-2.8c1.7-0.5,2.9-1,3.6-1.5c0.7-0.4,1-1,1-1.8c0-1.6-1.1-2.3-3.2-2.3c-1.2,0-2,0.2-2.5,0.7c-0.5,0.5-0.7,1.1-0.7,2
			v0.8h-4.8v-0.6c0-2,0.7-3.6,2-4.8c1.4-1.1,3.4-1.7,6.2-1.7c2.8,0,4.8,0.6,6.1,1.8c1.3,1.2,1.9,2.9,1.9,5.1V77
			c0,0.9,0.1,1.5,0.3,1.8c0.2,0.3,0.7,0.4,1.3,0.4l-0.2,3.8h-1.1c-1.4,0-2.5-0.2-3.3-0.6c-0.8-0.4-1.4-1-1.7-1.8
			C315.7,81.4,314.8,82,313.7,82.5z M309.2,77.3c0,1.6,0.9,2.4,2.7,2.4c0.7,0,1.4-0.2,2.2-0.5s1.4-0.9,1.8-1.6v-5.1
			c-0.6,0.5-1.7,1-3.2,1.6c-1.5,0.6-2.5,1.1-2.9,1.6C309.4,76.2,309.2,76.7,309.2,77.3z"/>
		<path fill="#FFFFFF" d="M339.9,68.6c0-1.8-1.2-2.6-3.6-2.6c-1,0-1.9,0.3-2.7,0.8c-0.8,0.5-1.2,1.3-1.2,2.2v13.9h-5.2V62.5h5.2v1.8
			c1.7-1.5,3.8-2.3,6.1-2.3c2.3,0,4,0.6,5.1,1.8c1.1,1.2,1.6,2.7,1.6,4.5v14.6h-5.2V68.6z"/>
		<path fill="#FFFFFF" d="M361.3,82.9v-28h10.8c3.8,0,6.5,0.6,7.9,1.8c0.7,0.6,1.3,1.4,1.6,2.3c0.3,0.9,0.5,2,0.5,3.5
			c0,1.4-0.3,2.6-0.8,3.4c-0.5,0.9-1.4,1.5-2.8,1.8c1.9,0.3,3.1,1,3.8,2.1c0.7,1.2,1,2.7,1,4.6c0,0.1,0,0.2,0,0.3
			c0,2.8-0.8,4.8-2.3,6.1c-1.5,1.3-4,2-7.5,2H361.3z M367,66.2h5.8c1.8,0,2.9-0.5,3.2-1.4c0.2-0.5,0.3-1.3,0.3-2.4
			c0-1.1-0.1-1.8-0.4-2.3c-0.2-0.5-0.7-0.8-1.3-1c-0.6-0.2-1.6-0.3-2.9-0.3H367V66.2z M367,78.9h5.5c1.1,0,2-0.1,2.7-0.2
			c0.6-0.1,1.2-0.4,1.6-0.7c0.4-0.4,0.7-0.8,0.8-1.4c0.1-0.6,0.2-1.3,0.2-2.1s0-1.5-0.1-1.9c-0.1-1.1-0.5-1.8-1.2-2.4
			c-0.7-0.5-1.8-0.8-3.3-0.8h-6V78.9z"/>
		<path fill="#FFFFFF" d="M401,80.6c-0.4,0.8-1.2,1.5-2.4,2c-1.2,0.5-2.5,0.7-3.9,0.7c-2,0-3.6-0.6-4.8-1.7
			c-1.2-1.1-1.8-2.5-1.8-4.3V62.5h5.2v14c0,1,0.3,1.7,1,2.2c0.7,0.5,1.5,0.7,2.5,0.7c1,0,1.9-0.3,2.7-0.8c0.8-0.5,1.2-1.3,1.2-2.4
			V62.5h5.2v20.4h-4.9L401,80.6z"/>
		<path fill="#FFFFFF" d="M412.1,59.6V55h5.2v4.6H412.1z M412.1,82.9V62.5h5.2v20.4H412.1z"/>
		<path fill="#FFFFFF" d="M430.3,83.1c-2.3,0-4.1-0.5-5.2-1.6c-1.1-1.1-1.7-2.8-1.7-5.3v-22h5.2v22c0,1.1,0.3,2,0.8,2.4
			c0.5,0.5,1.5,0.7,2.8,0.7h0.6l-0.4,3.8H430.3z"/>
		<path fill="#FFFFFF" d="M444.2,83.3c-2.7,0-4.7-0.6-6.1-1.7c-1.3-1.1-2-2.8-2-4.9v-8.1c0-2,0.7-3.6,2.1-4.7
			c1.4-1.2,3.5-1.8,6.4-1.8c1.2,0,2.5,0.2,3.8,0.7v-8.7h5.2v28.7H450l-0.6-1.2C447.9,82.8,446.1,83.3,444.2,83.3z M442.1,79
			c0.6,0.5,1.5,0.7,2.9,0.7c1.3,0,2.4-0.3,3.3-0.8V66.4c-1-0.5-2.1-0.7-3.3-0.7c-1.2,0-2.2,0.2-2.8,0.7c-0.6,0.4-0.9,1.2-0.9,2.2
			v8.3C441.3,77.8,441.5,78.6,442.1,79z"/>
		<path fill="#FFFFFF" d="M464.1,83c-1-0.2-1.9-0.6-2.7-1.1c-1.7-1-2.5-2.8-2.5-5.4v-7.9c0-2,0.8-3.6,2.3-4.8
			c1.6-1.1,3.7-1.7,6.4-1.7c5.8,0,8.7,2.2,8.7,6.7v4.9H464V77c0,1.1,0.3,1.9,0.8,2.2s1.5,0.5,2.8,0.5c1.3,0,2.1-0.1,2.4-0.2
			c0.6-0.3,0.9-0.7,1.1-1.1c0.2-0.4,0.3-1,0.3-1.8h4.8c-0.1,3.1-1.2,5.1-3.3,6c-1.3,0.5-2.8,0.7-4.6,0.7S465.1,83.2,464.1,83z
			 M464,70.5h7.3v-2.4c0-1.2-0.5-2-1.5-2.3c-0.5-0.2-1.3-0.2-2.4-0.2c-1.1,0-1.9,0.2-2.5,0.5c-0.6,0.4-0.9,1-0.9,2V70.5z"/>
		<path fill="#FFFFFF" d="M481.3,82.9V62.5h5.2v2.4c0.3-0.6,0.9-1.1,1.9-1.6c1.7-0.8,3.3-1.2,4.8-1.2c0.2,0,0.3,0,0.5,0l-0.1,4.4
			c-2.3,0.1-4.1,0.5-5.6,1.3c-0.8,0.4-1.3,0.9-1.4,1.4v13.7H481.3z"/>
		<path fill="#FFFFFF" d="M504,83.3c-3.2,0-5.9-0.5-7.9-1.6l1-3.5c2.4,1,4.6,1.5,6.7,1.5c1.6,0,2.5-0.7,2.7-2.1c0-0.2,0-0.3,0-0.5
			c0-1-0.6-1.7-1.7-2.1l-4.5-1.4c-1.5-0.5-2.6-1.2-3.3-2.2c-0.6-1-1-2.1-1-3.5c0,0,0-0.1,0-0.2c0-3.8,2.6-5.7,7.8-5.7
			c2.6,0,4.8,0.6,6.9,1.7l-1.2,3.2c-0.6-0.3-1.5-0.6-2.6-0.9c-1.1-0.3-2.1-0.4-3.1-0.4s-1.7,0.2-2.1,0.5c-0.4,0.3-0.7,0.9-0.7,1.8
			c0,0.8,0.5,1.4,1.4,1.7l4.2,1.3c1.7,0.5,2.9,1.3,3.6,2.2c0.7,1,1,2.3,1,4c0,1.7-0.6,3.2-1.9,4.3C508.1,82.7,506.3,83.3,504,83.3z"
			/>
		<path fill="#FFFFFF" d="M167.9,129.5v-28h16.9v4.3h-11.3v7.6h10.5v4h-10.5v12H167.9z"/>
		<path fill="#FFFFFF" d="M194.2,129.6c-1-0.2-1.9-0.6-2.7-1.1c-1.7-1-2.5-2.8-2.5-5.4v-7.9c0-2,0.8-3.6,2.3-4.8
			c1.6-1.1,3.7-1.7,6.4-1.7c5.8,0,8.7,2.2,8.7,6.7v4.9h-12.2v3.3c0,1.1,0.3,1.9,0.8,2.2c0.6,0.3,1.5,0.5,2.8,0.5
			c1.3,0,2.1-0.1,2.4-0.2c0.6-0.3,0.9-0.7,1.1-1.1c0.2-0.4,0.3-1,0.3-1.8h4.8c-0.1,3.1-1.2,5.1-3.3,6c-1.3,0.5-2.8,0.7-4.6,0.7
			C196.6,129.9,195.2,129.8,194.2,129.6z M194.1,117.1h7.3v-2.4c0-1.2-0.5-2-1.5-2.3c-0.5-0.2-1.3-0.2-2.4-0.2
			c-1.1,0-1.9,0.2-2.5,0.5c-0.6,0.4-0.9,1-0.9,2V117.1z"/>
		<path fill="#FFFFFF" d="M218.8,129.9c-2.7,0-4.7-0.6-6.1-1.7c-1.3-1.1-2-2.8-2-4.9v-8.1c0-2,0.7-3.6,2.1-4.7
			c1.4-1.2,3.5-1.8,6.4-1.8c1.2,0,2.5,0.2,3.8,0.7v-8.7h5.2v28.7h-3.5l-0.6-1.2C222.5,129.4,220.8,129.9,218.8,129.9z M216.8,125.6
			c0.6,0.5,1.5,0.7,2.9,0.7c1.3,0,2.4-0.3,3.3-0.8V113c-1-0.5-2.1-0.7-3.3-0.7c-1.2,0-2.2,0.2-2.8,0.7c-0.6,0.4-0.9,1.2-0.9,2.2v8.3
			C215.9,124.4,216.2,125.1,216.8,125.6z"/>
		<path fill="#FFFFFF" d="M238.7,129.6c-1-0.2-1.9-0.6-2.7-1.1c-1.7-1-2.5-2.8-2.5-5.4v-7.9c0-2,0.8-3.6,2.3-4.8
			c1.6-1.1,3.7-1.7,6.4-1.7c5.8,0,8.7,2.2,8.7,6.7v4.9h-12.2v3.3c0,1.1,0.3,1.9,0.8,2.2c0.6,0.3,1.5,0.5,2.8,0.5
			c1.3,0,2.1-0.1,2.4-0.2c0.6-0.3,0.9-0.7,1.1-1.1c0.2-0.4,0.3-1,0.3-1.8h4.8c-0.1,3.1-1.2,5.1-3.3,6c-1.3,0.5-2.8,0.7-4.6,0.7
			C241.1,129.9,239.7,129.8,238.7,129.6z M238.6,117.1h7.3v-2.4c0-1.2-0.5-2-1.5-2.3c-0.5-0.2-1.3-0.2-2.4-0.2
			c-1.1,0-1.9,0.2-2.5,0.5c-0.6,0.4-0.9,1-0.9,2V117.1z"/>
		<path fill="#FFFFFF" d="M255.9,129.5v-20.4h5.2v2.4c0.3-0.6,0.9-1.1,1.9-1.6c1.7-0.8,3.3-1.2,4.8-1.2c0.2,0,0.3,0,0.5,0l-0.1,4.4
			c-2.3,0.1-4.1,0.5-5.6,1.3c-0.8,0.4-1.3,0.9-1.4,1.4v13.7H255.9z"/>
		<path fill="#FFFFFF" d="M280.4,129.1c-1.1,0.5-2.4,0.8-4,0.8c-1.6,0-2.9-0.5-4-1.5c-1.1-1-1.6-2.3-1.6-3.9c0-1.6,0.5-2.9,1.5-3.8
			c1-1,2.9-1.9,5.7-2.8c1.7-0.5,2.9-1,3.6-1.5c0.7-0.4,1-1,1-1.8c0-1.6-1.1-2.3-3.2-2.3c-1.2,0-2,0.2-2.5,0.7
			c-0.5,0.5-0.7,1.1-0.7,2v0.8h-4.8v-0.6c0-2,0.7-3.6,2-4.8c1.4-1.1,3.4-1.7,6.2-1.7c2.8,0,4.8,0.6,6.1,1.8c1.3,1.2,1.9,2.9,1.9,5.1
			v8.1c0,0.9,0.1,1.5,0.3,1.8c0.2,0.3,0.7,0.4,1.3,0.4l-0.2,3.8H288c-1.4,0-2.5-0.2-3.3-0.6c-0.8-0.4-1.4-1-1.7-1.8
			C282.4,128,281.5,128.6,280.4,129.1z M275.9,123.9c0,1.6,0.9,2.4,2.7,2.4c0.7,0,1.4-0.2,2.2-0.5s1.4-0.9,1.8-1.6v-5.1
			c-0.6,0.5-1.7,1-3.2,1.6c-1.5,0.6-2.5,1.1-2.9,1.6C276.1,122.8,275.9,123.3,275.9,123.9z"/>
		<path fill="#FFFFFF" d="M303.5,129.7c-3.1,0-5.3-0.5-6.7-1.4c-1.3-0.9-2-2.7-2-5.3v-10.6h-2.7v-3.3h2.9l0.5-6.5h4.5v6.5h4.8v3.3
			h-4.8v10.3c0,1.3,0.3,2.1,0.9,2.6c0.6,0.4,1.8,0.7,3.5,0.7h0.6l-0.2,3.8H303.5z"/>
		<path fill="#FFFFFF" d="M309.4,106.2v-4.6h5.2v4.6H309.4z M309.4,129.5v-20.4h5.2v20.4H309.4z"/>
		<path fill="#FFFFFF" d="M328.8,129.9c-5.9,0-8.8-2.2-8.8-6.6v-8c0-2.1,0.8-3.7,2.3-4.9c1.5-1.2,3.7-1.7,6.5-1.7s5,0.6,6.5,1.8
			c1.6,1.2,2.3,2.8,2.3,4.9v8c0,3.3-1.6,5.3-4.7,6.1C331.8,129.8,330.4,129.9,328.8,129.9z M328.8,126.3c2.5,0,3.7-0.9,3.7-2.8v-8.5
			c0-1-0.3-1.7-0.9-2.1c-0.6-0.4-1.5-0.6-2.7-0.6c-2.5,0-3.7,0.9-3.7,2.8v8.5c0,1,0.3,1.7,0.9,2.1
			C326.7,126.1,327.6,126.3,328.8,126.3z"/>
		<path fill="#FFFFFF" d="M355.7,115.2c0-1.8-1.2-2.6-3.6-2.6c-1,0-1.9,0.3-2.7,0.8c-0.8,0.5-1.2,1.3-1.2,2.2v13.9H343v-20.4h5.2
			v1.8c1.7-1.5,3.8-2.3,6.1-2.3c2.3,0,4,0.6,5.1,1.8c1.1,1.2,1.6,2.7,1.6,4.5v14.6h-5.2V115.2z"/>
	</g>
</g>
</svg>
