<?xml version="1.0" encoding="utf-8"?>
<!-- Generator: Adobe Illustrator 18.1.0, SVG Export Plug-In . SVG Version: 6.00 Build 0)  -->
<svg version="1.1" id="Layer_1" xmlns="http://www.w3.org/2000/svg" xmlns:xlink="http://www.w3.org/1999/xlink" x="0px" y="0px"
	 viewBox="0 0 139.9 135.5" enable-background="new 0 0 139.9 135.5" xml:space="preserve">
<g>
	<g>
		<path fill="#FDCF00" d="M50.9,35.3l1.4-7.7c1.5-3.8-0.6-24.6-0.9-25.6s0-1,0-1s22.4-2.6,42.1,0.7c0,0,0.3,0,0.1,0.9
			c0,0-3.2,23.7-1.1,25c0,0-6.3,0.9-16.9,5.8c0,0-10.7,5.3-12.2,7.4c0,0-1.4,1.2,0.4,0.2C82,30.3,93.1,28.9,93.1,28.9
			s9.2-0.2,9.1,5.4c0,0-0.6,5.9-15.2,3.9c0,0-5.6-1.9-13.4,0.9c-7.8,2.8-1.9,0.7-1.9,0.7c-15.8,6.8-32.6,4.3-30.2-4.2
			c0,0-0.3-4.6,10-8L50,35c0,0-0.1,2.8,1.1-0.3"/>
		<path fill="#FDCF00" d="M11.5,56.7C27.4,58,28.6,21.9,28.6,21.9l-1.9,0.6c-1,12.6-3.7,20.1-3.7,20.1s1.9-10.1,2.6-19.8l-2.3,0.7
			c-0.5,8.4-2,15-2,15s0.6-7.5,0.9-14.7l-2,0.6c-0.6,11-2.4,19.6-2.6,20.5c0.1-1.1,1.2-11.8,1.6-20.2l-2.1,0.6
			c-0.3,4.5-1.2,10.1-1.2,10.1s0.1-5.5,0.3-9.8l-1.9,0.6c-0.7,6.5-1.5,15.1-1.5,15.1s-0.3-6,0.5-14.8l-2.1,0.6c-0.4,4.6-1,9.9-1,9.9
			s-0.2-4,0.2-9.7l-2,0.6c-0.8,8.9-1.3,19.6-1.3,19.6s-0.6-6.9,0.2-19.3l-2.1,0.6C4.3,36,4.3,45.4,4.3,45.4s-1.1-6.8-0.3-16.2
			l-2.2,0.7C1.9,29.9-2.5,55.5,11.5,56.7z"/>
		
			<rect x="8.6" y="57.5" transform="matrix(0.9965 8.308707e-02 -8.308707e-02 0.9965 4.8804 -0.7412)" fill="#FDCF00" width="5.5" height="1.6"/>
		
			<rect x="8.4" y="59.8" transform="matrix(0.9965 8.310429e-02 -8.310429e-02 0.9965 5.0758 -0.7169)" fill="#FDCF00" width="5.5" height="1.6"/>
		
			<rect x="8.2" y="62.2" transform="matrix(-0.9965 -8.308706e-02 8.308706e-02 -0.9965 16.6385 126.6152)" fill="#FDCF00" width="5.5" height="1.6"/>
		<path fill="#FDCF00" d="M138.7,68.7l-0.4,0.1c-1.3,0.4-1.8,0.6-3.4,1.6c-0.4,0.2-0.8,0.6-1.2,0.9c-0.3,0.3-0.6,0.5-0.8,0.6
			c-0.1,0-0.4,0-0.6,0.1c-0.4,0-0.9,0-1.5,0.2c-2.5,0.8-3.3,1.2-4.1,1.6c-0.2,0.1-0.4,0.2-0.5,0.3c0.5-1.4,0.8-2.1,1-2.5
			c0.3-0.8,0.3-0.8,0.3-1c0.1-0.4,0.4-1.5,0.9-3.3c0.4-1.2,0.5-1.5,0.6-1.8c0.2-0.5,0.4-1,1-2.9c0.1-0.4,0.2-0.8,0.3-1.2l0.1-0.5
			l-3.5-0.7l-0.1,0.6c0,0.3-0.1,0.6-0.2,0.9c-0.5,1.8-0.7,2.2-0.8,2.5c-0.2,0.4-0.3,0.7-0.8,2.2c-0.9,2.9-1,3.5-1,3.6l-0.2,0.4
			c-0.2,0.6-0.8,2-2,5.3l-0.1,0.2c-1,0.3-2,0.7-2.7,1.2c-1.7,1-2.5,1.8-3.1,2.4c-0.7,0.7-1.3,1.2-3.3,2.2c-0.8,0.4-2.6,1.1-6.2,2.2
			c-2.2-5.4-5.6-10.2-9.9-14c3.1-4.7,4.9-10.3,4.9-16.4c0-5-1.2-9.7-3.4-13.8c-2.3,0.7-5.7,1.1-11.1,0.3c0,0-5.6-1.9-13.4,0.9
			c-7.8,2.8-1.9,0.7-1.9,0.7c-11.2,4.8-22.9,4.9-27.9,1.6c-1.2,3.2-1.8,6.6-1.8,10.2c0,6.1,1.8,11.7,4.9,16.4
			c-4.6,4-8.1,9.2-10.3,15c-4-2.1-6.7-3.3-8.1-3.9c-2.7-0.9-3.8-1-5-1c-0.8,0-1.6,0-3.2-0.4c-0.7-0.2-2.1-0.9-3.1-1.4
			c-0.5-2.1-1-4.3-1.6-5.3c-0.3-0.6-0.8-1-1.1-1.2c-0.1-0.1-0.2-0.1-0.3-0.2c-0.3-0.5-0.5-1-0.8-1.5c-0.1-0.2-0.2-0.5-0.3-0.7
			l0.4-4.2l-5.5-0.5l-0.7,8.8c-0.6-0.2-1.2-0.3-1.7-0.3c-0.3,0-0.6,0-0.9-0.1c-1.6-0.4-1.8-0.5-2.8-1l-0.4-0.2L0,74.6l0.3,0.2
			c1.2,0.6,1.7,0.8,3.6,1.3c0.5,0.1,0.9,0.2,1.4,0.2c0.4,0,0.8,0.1,1,0.2c0.1,0,0.3,0.2,0.4,0.4C6.9,76.9,7,77,7,77l-0.5,5.8
			c-0.1,0.1-0.2,0.1-0.4,0.2c-1.1,0.6-1.4,0.7-1.7,0.9c-0.5,0.2-1,0.4-2.8,1.4c-0.4,0.2-0.7,0.4-1,0.7l-0.4,0.3l2,3l0.5-0.3
			c0.2-0.2,0.5-0.3,0.7-0.5c1.7-0.9,2-1.1,2.3-1.2c0.1,0,0.3-0.1,0.4-0.2l-2.3,27.7l5.5,0.5L12,84c0.7-0.3,2.1-0.9,4.7-2.2l0.2-0.1
			c1,0.5,1.9,0.9,2.7,1.1c1.9,0.4,3,0.5,3.9,0.5c1,0,1.8,0,3.9,0.8c1,0.4,3.3,1.4,8.2,3.9c-0.8,3.1-1.3,6.3-1.3,9.6
			c0,0.5,0,0.9,0,1.3c-8.1,8.9-13,20.8-13,33.8c0,0.9,0,1.8,0.1,2.7h100.7c0-0.9,0.1-1.8,0.1-2.7c0-13-4.9-24.9-13-33.8
			c0-0.4,0-0.9,0-1.3c0-3.7-0.5-7.3-1.5-10.6c3.2-1,5.4-1.8,6.6-2.4c2.6-1.2,3.4-2,4.3-2.9c0.6-0.6,1.2-1.1,2.5-2
			c0.6-0.4,2.1-0.9,3.1-1.2c1.8,1.2,3.7,2.3,4.9,2.7c0.7,0.2,1.3,0.1,1.7,0.1c0.1,0,0.2,0,0.3,0c0.6,0.1,1.1,0.3,1.6,0.5
			c0.3,0.1,0.7,0.3,1,0.4l0.9,0.3l1.1-3.4l-0.9-0.3c-0.3-0.1-0.6-0.2-0.9-0.3c-0.7-0.3-1.4-0.5-2.2-0.7c-0.6-0.1-1.1-0.1-1.5,0
			c-0.1,0-0.2,0-0.3,0c-0.4-0.1-1-0.4-1.7-0.9c0,0,0.1,0,0.1,0c0.8-0.4,1.4-0.7,3.6-1.3c0.1,0,0.4,0,0.6,0c0.5,0,1.2,0,1.8-0.3
			c0.7-0.3,1.3-0.8,1.7-1.2c0.2-0.2,0.4-0.4,0.7-0.5c1.4-0.9,1.7-0.9,2.7-1.3l0.4-0.1L138.7,68.7z M12.3,79.9l0-0.2
			c0.1,0,0.2,0.1,0.3,0.1C12.5,79.8,12.4,79.8,12.3,79.9z M13.1,76.2c-0.2-0.1-0.3-0.1-0.5-0.2l0.1-1.4C12.9,75,13.1,75.6,13.1,76.2
			C13.2,76.2,13.2,76.2,13.1,76.2z M71.3,131.1c-1.3,0-2.3-1-2.3-2.3s1-2.3,2.3-2.3s2.3,1,2.3,2.3S72.6,131.1,71.3,131.1z
			 M71.3,116.7c-1.3,0-2.3-1-2.3-2.3c0-1.3,1-2.3,2.3-2.3s2.3,1,2.3,2.3C73.6,115.6,72.6,116.7,71.3,116.7z M71.3,102.3
			c-1.3,0-2.3-1-2.3-2.3c0-1.3,1-2.3,2.3-2.3s2.3,1,2.3,2.3C73.6,101.2,72.6,102.3,71.3,102.3z M71.3,87.9c-1.3,0-2.3-1-2.3-2.3
			c0-1.3,1-2.3,2.3-2.3s2.3,1,2.3,2.3C73.6,86.8,72.6,87.9,71.3,87.9z M81,67.2c-4.1-0.3-7.6-2.7-9.6-4.8c-1.9,2.1-5.5,4.5-9.6,4.8
			c-4.3,0.3-8.4-1.6-8.1-6.2c0.1-1.5,1.1-3.6,3.3-3.4c0.2,0,0.4,0.1,0.5,0.1c0,0,0,0,0,0c0.8,0.2,1.5,1,1.5,1.9c0,1.1-0.9,2-2,2
			c-1,0-1.8-0.7-1.9-1.7c0,0,0,0,0,0c-0.6,1.7,0.6,3.6,1.9,3.9c4.6,0.8,6.3-6.5,10.6-7.1c1.6-0.2,2.9,0.2,3.8,1.1
			c0.9-0.9,2.2-1.4,3.8-1.1c4.3,0.7,6,7.9,10.6,7.1c1.4-0.2,2.6-2.1,1.9-3.9c0,0,0,0,0,0c-0.1,0.9-1,1.7-1.9,1.7c-1.1,0-2-0.9-2-2
			c0-0.9,0.6-1.7,1.5-1.9c0,0,0,0,0,0c0.2-0.1,0.3-0.1,0.5-0.1c2.1-0.2,3.2,1.9,3.3,3.4C89.4,65.6,85.3,67.5,81,67.2z"/>
	</g>
</g>
</svg>
